<svg width="40px"  xmlns="http://www.w3.org/2000/svg" xmlns:xlink="http://www.w3.org/1999/xlink" version="1.1" id="controlerplaystation" viewBox="0 0 216 218.1416" enable-background="new 0 0 216 218.1416" xml:space="preserve" fill="#000000">
<g id="SVGRepo_bgCarrier" stroke-width="0"></g>
<g id="SVGRepo_iconCarrier"> <g> 
<circle fill="#D0E8FF" cx="152" cy="58.3193" r="4"></circle> 
<circle fill="#D0E8FF" cx="110" cy="132.3193" r="2"></circle> 
<circle fill="#D0E8FF" cx="176" cy="70.3193" r="4"></circle> 
<path fill="#D0E8FF" d="M110,118.3193c-7.7188,0-14,6.2812-14,14s6.2812,14,14,14s14-6.2812,14-14S117.7188,118.3193,110,118.3193z M110,142.3193c-5.5156,0-10-4.4844-10-10s4.4844-10,10-10s10,4.4844,10,10S115.5156,142.3193,110,142.3193z"></path> 
<path fill="#D0E8FF" d="M56,70.3193v-8h-4v8c0,2.2109-1.7891,4-4,4h-8v4h8c2.2109,0,4,1.7891,4,4v8h4v-8c0-2.2109,1.7891-4,4-4h8 v-4h-8C57.7891,74.3193,56,72.5303,56,70.3193z"></path> 
<path fill="#5CB0FF" d="M49.1953,113.8818c-5.8828-4.7969-12.0078-6.7812-18.2109-5.9023 c-11.3413,1.6221-20.2815,12.1548-22.8882,15.5347C9.0745,159.7844,20.0833,186.3193,30,186.3193c10.3867,0,22-29.082,22-68 c0-0.5149,0.116-0.9995,0.2927-1.4514C51.2463,115.7266,50.2114,114.7114,49.1953,113.8818z"></path> 
<circle fill="#D0E8FF" cx="128" cy="70.3193" r="4"></circle> 
<circle fill="#D0E8FF" cx="152" cy="86.3193" r="4"></circle> 
<path fill="#5CB0FF" d="M163.9609,107.792c7.4023-6.3125,15.3047-8.9102,23.4766-7.7031 c8.5391,1.2539,15.6523,6.4766,20.5625,11.2812V90.335c0-30.8867-25.1328-56.0156-56.0234-56.0156H64.0234 C33.1328,34.3193,8,59.4482,8,90.335v21.3789c5.1406-4.8828,12.7109-10.332,21.8086-11.6484 c1.3828-0.1992,2.7617-0.3008,4.1289-0.3008c7.0469,0,13.8633,2.6562,20.3164,7.9219 c10.1875,8.3125,20.3164,28.2266,30.1172,47.4883c7.9297,15.5859,19.9141,39.1445,25.6289,39.1445 c5.7695,0,17.5781-23.9844,25.3945-39.8516C144.7109,135.5498,154.3398,115.9912,163.9609,107.792z M76,82.3193 c0,2.2109-1.7891,4-4,4h-8v8c0,2.2109-1.7891,4-4,4H48c-2.2109,0-4-1.7891-4-4v-8h-8c-2.2109,0-4-1.7891-4-4v-12 c0-2.2109,1.7891-4,4-4h8v-8c0-2.2109,1.7891-4,4-4h12c2.2109,0,4,1.7891,4,4v8h8c2.2109,0,4,1.7891,4,4V82.3193z M176,58.3193 c6.6172,0,12,5.3828,12,12s-5.3828,12-12,12s-12-5.3828-12-12S169.3828,58.3193,176,58.3193z M152,46.3193 c6.6172,0,12,5.3828,12,12s-5.3828,12-12,12s-12-5.3828-12-12S145.3828,46.3193,152,46.3193z M110,154.3193 c-12.1289,0-22-9.8711-22-22s9.8711-22,22-22s22,9.8711,22,22S122.1289,154.3193,110,154.3193z M128,82.3193 c-6.6172,0-12-5.3828-12-12s5.3828-12,12-12s12,5.3828,12,12S134.6172,82.3193,128,82.3193z M152,98.3193 c-6.6172,0-12-5.3828-12-12s5.3828-12,12-12s12,5.3828,12,12S158.6172,98.3193,152,98.3193z"></path> 
<path fill="#5CB0FF" d="M186.2461,107.999c-5.8828-0.8398-11.4609,1.0742-17.0977,5.8789 c-1.6626,1.4177-3.3787,3.3474-5.1262,5.6392c0.2385,38.3066,11.6995,66.8022,21.9778,66.8022 c9.9226,0,20.938-26.5667,21.9048-62.8696C205.4568,120.0994,196.9944,109.5613,186.2461,107.999z"></path> 
<path fill="#1C71DA" d="M128,58.3193c-6.6172,0-12,5.3828-12,12s5.3828,12,12,12s12-5.3828,12-12S134.6172,58.3193,128,58.3193z M128,74.3193c-2.207,0-4-1.793-4-4s1.793-4,4-4s4,1.793,4,4S130.207,74.3193,128,74.3193z"></path> 
<path fill="#1C71DA" d="M152,74.3193c-6.6172,0-12,5.3828-12,12s5.3828,12,12,12s12-5.3828,12-12S158.6172,74.3193,152,74.3193z M152,90.3193c-2.207,0-4-1.793-4-4s1.793-4,4-4s4,1.793,4,4S154.207,90.3193,152,90.3193z"></path> <path fill="#1C71DA" d="M152,70.3193c6.6172,0,12-5.3828,12-12s-5.3828-12-12-12s-12,5.3828-12,12S145.3828,70.3193,152,70.3193z M152,54.3193c2.207,0,4,1.793,4,4s-1.793,4-4,4s-4-1.793-4-4S149.793,54.3193,152,54.3193z"></path> 
<path fill="#1C71DA" d="M176,82.3193c6.6172,0,12-5.3828,12-12s-5.3828-12-12-12s-12,5.3828-12,12S169.3828,82.3193,176,82.3193z M176,66.3193c2.207,0,4,1.793,4,4s-1.793,4-4,4s-4-1.793-4-4S173.793,66.3193,176,66.3193z"></path> <path fill="#1C71DA" d="M151.9766,26.3193H64.0234C28.7227,26.3193,0,55.0381,0,90.335v31.9844c0,0.1157,0.0442,0.22,0.054,0.3337 C0.8423,158.168,11.2781,194.3193,30,194.3193c17.9683,0,28.3018-33.3,29.8022-67.3772c5.8772,9.1428,11.886,20.946,17.436,31.8577 C90.9648,185.7842,99.8945,202.3193,110,202.3193c10.2266,0,19.0391-16.8398,32.5703-44.3203 c4.4285-8.9927,9.1633-18.594,13.8623-26.7615c2.1479,32.5249,12.3555,63.0818,29.5674,63.0818 c18.7229,0,29.1589-36.155,29.9463-71.6716c0.0095-0.1121,0.0537-0.2144,0.0537-0.3284V90.335 C216,55.0381,187.2773,26.3193,151.9766,26.3193z M52,118.3193c0,38.918-11.6133,68-22,68 c-9.9167,0-20.9255-26.5349-21.9038-62.8052c2.6067-3.3799,11.5469-13.9126,22.8882-15.5347 c6.2031-0.8789,12.3281,1.1055,18.2109,5.9023c1.0161,0.8296,2.051,1.8447,3.0974,2.9861C52.116,117.3198,52,117.8044,52,118.3193z M135.3945,154.4678c-7.8164,15.8672-19.625,39.8516-25.3945,39.8516c-5.7148,0-17.6992-23.5586-25.6289-39.1445 c-9.8008-19.2617-19.9297-39.1758-30.1172-47.4883c-6.4531-5.2656-13.2695-7.9219-20.3164-7.9219 c-1.3672,0-2.7461,0.1016-4.1289,0.3008c-9.0977,1.3164-16.668,6.7656-21.8086,11.6484V90.335 c0-30.8867,25.1328-56.0156,56.0234-56.0156h87.9531C182.8672,34.3193,208,59.4482,208,90.335v21.0352 c-4.9102-4.8047-12.0234-10.0273-20.5625-11.2812c-8.1719-1.207-16.0742,1.3906-23.4766,7.7031 C154.3398,115.9912,144.7109,135.5498,135.3945,154.4678z M186,186.3193c-10.2783,0-21.7393-28.4956-21.9778-66.8022 c1.7476-2.2917,3.4636-4.2214,5.1262-5.6392c5.6367-4.8047,11.2148-6.7188,17.0977-5.8789 c10.7483,1.5623,19.2107,12.1003,21.6587,15.4507C206.938,159.7527,195.9226,186.3193,186,186.3193z"></path> 
<path fill="#1C71DA" d="M110,110.3193c-12.1289,0-22,9.8711-22,22s9.8711,22,22,22s22-9.8711,22-22S122.1289,110.3193,110,110.3193 z M110,146.3193c-7.7188,0-14-6.2812-14-14s6.2812-14,14-14s14,6.2812,14,14S117.7188,146.3193,110,146.3193z"></path> <path fill="#1C71DA" d="M110,122.3193c-5.5156,0-10,4.4844-10,10s4.4844,10,10,10s10-4.4844,10-10S115.5156,122.3193,110,122.3193z M110,134.3193c-1.1016,0-2-0.8984-2-2s0.8984-2,2-2s2,0.8984,2,2S111.1016,134.3193,110,134.3193z"></path> <path fill="#1C71DA" d="M72,66.3193h-8v-8c0-2.2109-1.7891-4-4-4H48c-2.2109,0-4,1.7891-4,4v8h-8c-2.2109,0-4,1.7891-4,4v12 c0,2.2109,1.7891,4,4,4h8v8c0,2.2109,1.7891,4,4,4h12c2.2109,0,4-1.7891,4-4v-8h8c2.2109,0,4-1.7891,4-4v-12 C76,68.1084,74.2109,66.3193,72,66.3193z M68,78.3193h-8c-2.2109,0-4,1.7891-4,4v8h-4v-8c0-2.2109-1.7891-4-4-4h-8v-4h8 c2.2109,0,4-1.7891,4-4v-8h4v8c0,2.2109,1.7891,4,4,4h8V78.3193z"></path> </g> 
<path fill="#FF5D5D" d="M12.252,22.1416c-1.0234,0-2.0479-0.3906-2.8281-1.1719c-1.5625-1.5615-1.5625-4.0947,0-5.6562 L23.5664,1.1719c1.5625-1.5625,4.0957-1.5625,5.6562,0c1.5625,1.5615,1.5625,4.0947,0,5.6562L15.0801,20.9697 C14.2988,21.751,13.2754,22.1416,12.252,22.1416z"></path> <path fill="#FF5D5D" d="M26.3945,22.1416c-1.0234,0-2.0469-0.3906-2.8281-1.1719L9.4238,6.8281 c-1.5625-1.5615-1.5625-4.0947,0-5.6562c1.5605-1.5625,4.0938-1.5625,5.6562,0l14.1426,14.1416 c1.5625,1.5615,1.5625,4.0947,0,5.6562C28.4424,21.751,27.418,22.1416,26.3945,22.1416z"></path> 
<path fill="#00D40B" d="M62.252,218.1416c-7.7197,0-14-6.2803-14-14s6.2803-14,14-14s14,6.2803,14,14 S69.9717,218.1416,62.252,218.1416z M62.252,198.1416c-3.3086,0-6,2.6914-6,6s2.6914,6,6,6s6-2.6914,6-6 S65.5605,198.1416,62.252,198.1416z"></path> 
<path fill="#FFC504" d="M199.5664,32.7686c-1.0234,0-2.0469-0.3906-2.8281-1.1719l-11.3145-11.3135 c-0.75-0.75-1.1719-1.7676-1.1719-2.8281s0.4219-2.0781,1.1719-2.8281l11.3145-11.3135c1.5625-1.5625,4.0938-1.5625,5.6562,0 L213.708,14.627c1.5625,1.5615,1.5625,4.0947,0,5.6562l-11.3135,11.3135C201.6143,32.3779,200.5898,32.7686,199.5664,32.7686z M193.9092,17.4551l5.6572,5.6572l5.6562-5.6572l-5.6562-5.6572L193.9092,17.4551z"></path> </g></svg>